<?xml version="1.0" encoding="UTF-8"?>
<svg width="180" height="180" viewBox="0 0 180 180" xmlns="http://www.w3.org/2000/svg">
  <!-- Background with rounded corners -->
  <rect width="180" height="180" rx="40" fill="#1E293B"/>
  
  <!-- Outer ring -->
  <circle cx="90" cy="90" r="65" fill="none" stroke="#4F46E5" stroke-width="8"/>
  
  <!-- Stylized "G" for Gatwick -->
  <path d="M90 45 C65 45 50 60 50 90 C50 120 65 135 90 135 C105 135 115 130 120 120 L120 100 L90 100 L90 115 L105 115 L105 120 C100 125 95 125 90 125 C75 125 65 115 65 90 C65 65 75 55 90 55 C100 55 105 60 110 70 L125 65 C117.5 50 105 45 90 45 Z" fill="#FFFFFF"/>
  
  <!-- Stylized speedometer needle -->
  <line x1="90" y1="90" x2="120" y2="60" stroke="#FF5733" stroke-width="8" stroke-linecap="round"/>
  <circle cx="90" cy="90" r="10" fill="#FF5733"/>
</svg> 