<?xml version="1.0" encoding="UTF-8"?>
<svg width="32" height="32" viewBox="0 0 32 32" xmlns="http://www.w3.org/2000/svg">
  <!-- Background circle -->
  <circle cx="16" cy="16" r="15" fill="#1E293B" stroke="#4F46E5" stroke-width="2"/>
  
  <!-- Stylized "G" for Gatwick -->
  <path d="M16 7 C11 7 8 10 8 16 C8 22 11 25 16 25 C19 25 21 24 22 22 L22 18 L16 18 L16 21 L19 21 L19 22 C18 23 17 23 16 23 C13 23 11 21 11 16 C11 11 13 9 16 9 C18 9 19 10 20 12 L23 11 C21.5 8 19 7 16 7 Z" fill="#FFFFFF"/>
  
  <!-- Stylized speedometer needle -->
  <line x1="16" y1="16" x2="22" y2="10" stroke="#FF5733" stroke-width="2" stroke-linecap="round"/>
  <circle cx="16" cy="16" r="2" fill="#FF5733"/>
</svg> 